<svg width="28" height="28" viewBox="0 0 28 28" fill="none" xmlns="http://www.w3.org/2000/svg">
<path fill-rule="evenodd" clip-rule="evenodd" d="M15.8597 12.0384C19.4668 12.2571 22.3601 13.1114 23.5043 14.2956C23.8544 14.6581 23.976 14.926 23.976 15.3355C23.976 15.745 23.8544 16.0129 23.5043 16.3753C22.4085 17.5094 19.8731 18.298 16.3337 18.6055C15.5561 18.673 13.0154 18.673 12.2377 18.6055C8.69833 18.298 6.16294 17.5094 5.06717 16.3753C4.71699 16.0129 4.59547 15.745 4.59547 15.3355C4.59547 14.926 4.71699 14.6581 5.06717 14.2956C6.41079 12.9051 10.2009 11.9743 14.4132 12.0005C14.9167 12.0037 15.5676 12.0207 15.8597 12.0384ZM23.9881 19.3902L23.976 20.2215L23.8483 20.4884C23.2419 21.7565 20.4749 22.8079 16.8416 23.1508C15.3273 23.2938 13.2442 23.2938 11.7298 23.1508C8.09655 22.8079 5.32954 21.7565 4.72309 20.4884L4.59547 20.2215L4.5833 19.3902C4.57658 18.933 4.58098 18.5589 4.59308 18.5589C4.60514 18.5589 4.76792 18.6485 4.95483 18.7579C6.58783 19.7145 8.96837 20.3223 12.1618 20.5982C12.9426 20.6656 15.6288 20.6656 16.4096 20.5982C19.6031 20.3223 21.9836 19.7145 23.6166 18.7579C23.8035 18.6485 23.9663 18.5589 23.9783 18.5589C23.9904 18.5589 23.9948 18.933 23.9881 19.3902ZM23.988 24.0521L23.976 24.9862L23.8622 25.2183C23.6038 25.7455 22.9074 26.2892 21.9506 26.7109C18.0511 28.4297 10.5204 28.4297 6.62079 26.7109C5.66405 26.2892 4.96765 25.7455 4.70925 25.2183L4.59547 24.9862L4.58345 24.0521L4.57143 23.1179L4.67057 23.1848C4.8891 23.3323 5.48898 23.6533 5.84705 23.8142C6.99672 24.331 8.77301 24.793 10.4931 25.0226C15.3023 25.6646 20.6653 25.0129 23.4527 23.4478C23.6447 23.34 23.8463 23.2216 23.9009 23.1848L24 23.1179L23.988 24.0521Z" fill="#BFFF07"/>
<path d="M10.8571 4.57146V10.8572H17.1429V4.57146H20L14 3.43323e-05L8 4.57146H10.8571Z" fill="#BFFF07"/>
</svg>
