<svg width="28" height="28" viewBox="0 0 28 28" fill="none" xmlns="http://www.w3.org/2000/svg">
<path fill-rule="evenodd" clip-rule="evenodd" d="M10.2214 0.662852C7.2242 0.929838 4.41373 2.61053 2.77034 5.13178C-0.863716 10.7069 2.5 17.2973 7.1889 19.0781L9.59275 17.5677C10.9149 16.737 12.1466 15.9784 12.3299 15.8819C13.0464 15.5048 13.8892 15.503 14.6791 15.8768C15.0467 16.0508 15.2069 16.184 16.0734 17.0358L17.1852 18.2394L17.5 18C17.6731 17.8683 18.0248 17.5521 18.2815 17.2973C22.023 13.5827 21.985 7.95666 18.5099 3.97594C16.4764 1.64664 13.2974 0.388742 10.2214 0.662852ZM21.7615 13.4883C21.5 13.5712 21.1444 13.94 21.0625 14.2132C20.8788 14.826 21.0098 15.0836 22.0223 16.1009L22.8248 16.907L20.4473 19.2769L18.0698 21.6467L16.0734 19.6593C14.7208 18.3127 14.0114 17.6448 13.8737 17.5881C13.6317 17.4885 13.1814 17.4788 12.983 17.5689C12.9049 17.6044 10.0305 19.3671 6.59541 21.486C0.789146 25.0676 0.338939 25.356 0.194941 25.5857C0.109788 25.7215 0.0265503 25.9332 0.0100339 26.056C-0.106784 26.9241 0.819062 27.6264 1.60769 27.268C1.72801 27.2134 2.90931 26.4994 4.23281 25.6817C5.5563 24.8639 7.17747 23.8637 7.83539 23.4592C8.49331 23.0546 9.98077 22.1371 11.1408 21.4203L13.25 20.1171L15.3862 22.2371C17.3915 24.2272 17.5386 24.361 17.7861 24.4208C18.0706 24.4896 18.3558 24.459 18.6163 24.3319C18.7065 24.2878 20.0659 22.9735 21.637 21.4111L24.4938 18.5703L25.3024 19.3698C26.3228 20.3786 26.5814 20.5092 27.1962 20.3261C27.4868 20.2396 27.8415 19.8861 27.9283 19.5965C28.0239 19.2778 28.0239 14.5319 27.9283 14.2132C27.8419 13.9251 27.4707 13.5519 27.1944 13.4755C26.9008 13.3942 22.0216 13.4057 21.7615 13.4883Z" fill="#BFFF07"/>
</svg>
